<svg width="128" height="128" xmlns="http://www.w3.org/2000/svg">

 <g>
  <title>background</title>
  <rect fill="none" id="canvas_background" height="402" width="582" y="-1" x="-1"/>
 </g>
 <g>
  <title>Layer 1</title>
  <path id="svg_1" d="m63.912,0c-35.293,0 -63.912,28.619 -63.912,63.921c0,28.238 18.312,52.194 43.712,60.646c3.196,0.583 4.362,-1.387 4.362,-3.08c0,-1.518 -0.055,-5.541 -0.086,-10.875c-17.779,3.862 -21.531,-8.567 -21.531,-8.567c-2.906,-7.38 -7.096,-9.35 -7.096,-9.35c-5.802,-3.962 0.439,-3.885 0.439,-3.885c6.415,0.452 9.791,6.591 9.791,6.591c5.701,9.764 14.959,6.943 18.601,5.311c0.581,-4.13 2.232,-6.95 4.058,-8.544c-14.193,-1.618 -29.114,-7.098 -29.114,-31.592c0,-6.978 2.49,-12.683 6.579,-17.15c-0.657,-1.617 -2.851,-8.116 0.626,-16.914c0,0 5.366,-1.72 17.576,6.552c5.098,-1.417 10.566,-2.13 16.001,-2.153c5.43,0.023 10.894,0.736 16.002,2.153c12.203,-8.272 17.561,-6.552 17.561,-6.552c3.486,8.798 1.291,15.296 0.636,16.914c4.093,4.468 6.567,10.173 6.567,17.15c0,24.556 -14.943,29.958 -29.183,31.538c2.296,1.977 4.338,5.878 4.338,11.84c0,8.545 -0.076,15.435 -0.076,17.534c0,1.709 1.149,3.693 4.395,3.073c25.378,-8.469 43.67,-32.409 43.67,-60.64c0,-35.302 -28.615,-63.921 -63.916,-63.921z" fill="#EEEEEE" clip-rule="evenodd" fill-rule="evenodd"/>
 </g>
</svg>