<svg width="160.723" height="113.09" xmlns="http://www.w3.org/2000/svg">

 <g>
  <title>background</title>
  <rect fill="none" id="canvas_background" height="402" width="582" y="-1" x="-1"/>
 </g>
 <g>
  <title>Layer 1</title>
  <path d="m64.832,33.15l37.664,25.15l5.284,-2.743l-42.948,-22.407z" opacity="0.12" id="The_Sharpness"/>
  <g id="Lozenge">
   <g id="svg_1">
    <path id="svg_2" d="m159.136,25.413c0,0 -1.553,-10.953 -6.319,-15.776c-6.044,-6.331 -12.819,-6.362 -15.926,-6.733c-22.242,-1.608 -55.607,-1.608 -55.607,-1.608l-0.069,0c0,0 -33.364,0 -55.607,1.608c-3.108,0.37 -9.881,0.402 -15.927,6.733c-4.766,4.823 -6.317,15.776 -6.317,15.776s-1.589,12.863 -1.589,25.726l0,12.059c0,12.862 1.589,25.725 1.589,25.725s1.551,10.953 6.316,15.777c6.046,6.331 13.989,6.13 17.526,6.794c12.716,1.219 54.042,1.597 54.042,1.597s33.399,-0.05 55.642,-1.658c3.107,-0.371 9.882,-0.402 15.926,-6.733c4.766,-4.824 6.319,-15.777 6.319,-15.777s1.587,-12.863 1.587,-25.725l0,-12.059c0.001,-12.863 -1.586,-25.726 -1.586,-25.726zm-94.297,52.397l-0.007,-44.66l42.948,22.408l-42.941,22.252z" fill="#EEEEEE"/>
   </g>
  </g>
 </g>
</svg>